<svg width="82" height="58" viewBox="0 0 82 58" fill="none" xmlns="http://www.w3.org/2000/svg">
<circle cx="57.1545" cy="33.4086" r="23.8898" fill="#64ffda"/>
<path d="M13.1794 7.18672C13.1794 7.23321 13.1562 7.55863 13.1097 8.16298H3.64932C3.81978 8.93778 4.22268 9.54987 4.85802 9.99926C5.49335 10.4486 6.28365 10.6733 7.22891 10.6733C7.87975 10.6733 8.4531 10.5804 8.94898 10.3944C9.46035 10.193 9.93298 9.88304 10.3669 9.46465L12.2961 11.5566C11.1184 12.9048 9.39836 13.5789 7.13594 13.5789C5.7258 13.5789 4.47836 13.3077 3.39364 12.7653C2.30891 12.2074 1.47213 11.4404 0.883276 10.4641C0.294425 9.48789 0 8.37992 0 7.14024C0 5.91605 0.286677 4.81583 0.860032 3.83957C1.44888 2.84783 2.24693 2.08077 3.25417 1.53841C4.27691 0.980551 5.41587 0.701622 6.67106 0.701622C7.89525 0.701622 9.00321 0.965055 9.99496 1.49192C10.9867 2.01879 11.7615 2.77809 12.3194 3.76984C12.8927 4.74609 13.1794 5.88506 13.1794 7.18672ZM6.6943 3.44442C5.87301 3.44442 5.18343 3.67687 4.62558 4.14175C4.06772 4.60663 3.7268 5.24197 3.60284 6.04776H9.76252C9.63855 5.25746 9.29764 4.62987 8.73978 4.16499C8.18192 3.68461 7.5001 3.44442 6.6943 3.44442Z" fill="black"/>
<path d="M15.3556 5.39693H21.9337V8.30244H15.3556V5.39693Z" fill="black"/>
<path d="M31.0572 13.5789C29.7245 13.5789 28.5236 13.3077 27.4544 12.7653C26.4006 12.2074 25.5716 11.4404 24.9672 10.4641C24.3784 9.48789 24.084 8.37992 24.084 7.14024C24.084 5.90055 24.3784 4.79258 24.9672 3.81633C25.5716 2.84008 26.4006 2.08077 27.4544 1.53841C28.5236 0.980551 29.7245 0.701622 31.0572 0.701622C32.3744 0.701622 33.5211 0.980551 34.4973 1.53841C35.4891 2.08077 36.2096 2.86332 36.659 3.88606L33.8465 5.39693C33.1957 4.25022 32.2581 3.67687 31.034 3.67687C30.0887 3.67687 29.3061 3.98679 28.6863 4.60663C28.0665 5.22647 27.7565 6.07101 27.7565 7.14024C27.7565 8.20947 28.0665 9.054 28.6863 9.67384C29.3061 10.2937 30.0887 10.6036 31.034 10.6036C32.2736 10.6036 33.2112 10.0303 33.8465 8.88354L36.659 10.4177C36.2096 11.4094 35.4891 12.1842 34.4973 12.7421C33.5211 13.2999 32.3744 13.5789 31.0572 13.5789Z" fill="black"/>
<path d="M44.5384 13.5789C43.2212 13.5789 42.0358 13.3077 40.9821 12.7653C39.9438 12.2074 39.1303 11.4404 38.5414 10.4641C37.9526 9.48789 37.6582 8.37992 37.6582 7.14024C37.6582 5.90055 37.9526 4.79258 38.5414 3.81633C39.1303 2.84008 39.9438 2.08077 40.9821 1.53841C42.0358 0.980551 43.2212 0.701622 44.5384 0.701622C45.8556 0.701622 47.0333 0.980551 48.0715 1.53841C49.1097 2.08077 49.9233 2.84008 50.5121 3.81633C51.101 4.79258 51.3954 5.90055 51.3954 7.14024C51.3954 8.37992 51.101 9.48789 50.5121 10.4641C49.9233 11.4404 49.1097 12.2074 48.0715 12.7653C47.0333 13.3077 45.8556 13.5789 44.5384 13.5789ZM44.5384 10.6036C45.4682 10.6036 46.2275 10.2937 46.8163 9.67384C47.4207 9.0385 47.7229 8.19397 47.7229 7.14024C47.7229 6.0865 47.4207 5.24972 46.8163 4.62987C46.2275 3.99454 45.4682 3.67687 44.5384 3.67687C43.6086 3.67687 42.8416 3.99454 42.2372 4.62987C41.6329 5.24972 41.3307 6.0865 41.3307 7.14024C41.3307 8.19397 41.6329 9.0385 42.2372 9.67384C42.8416 10.2937 43.6086 10.6036 44.5384 10.6036Z" fill="black"/>
<path d="M69.8344 0.701622C71.3995 0.701622 72.6391 1.1665 73.5534 2.09627C74.4832 3.01054 74.948 4.38968 74.948 6.23372V13.3929H71.322V6.79158C71.322 5.79983 71.1128 5.06376 70.6944 4.58339C70.2915 4.08751 69.7104 3.83957 68.9511 3.83957C68.0988 3.83957 67.4247 4.1185 66.9288 4.67636C66.433 5.21872 66.185 6.03227 66.185 7.11699V13.3929H62.5589V6.79158C62.5589 4.82358 61.7686 3.83957 60.188 3.83957C59.3513 3.83957 58.6849 4.1185 58.1891 4.67636C57.6932 5.21872 57.4452 6.03227 57.4452 7.11699V13.3929H53.8192V0.887574H57.2825V2.32871C57.7474 1.80184 58.313 1.39894 58.9794 1.12002C59.6612 0.841087 60.405 0.701622 61.2108 0.701622C62.0941 0.701622 62.8921 0.879827 63.6049 1.23624C64.3177 1.57715 64.8911 2.08077 65.325 2.7471C65.8364 2.09627 66.4794 1.59265 67.2542 1.23624C68.0445 0.879827 68.9046 0.701622 69.8344 0.701622Z" fill="black"/>
<path d="M16.9903 29.1111C18.5554 29.1111 19.7951 29.576 20.7094 30.5057C21.6392 31.42 22.104 32.7991 22.104 34.6432V41.8023H18.478V35.201C18.478 34.2093 18.2688 33.4732 17.8504 32.9928C17.4475 32.497 16.8664 32.249 16.1071 32.249C15.2548 32.249 14.5807 32.528 14.0848 33.0858C13.589 33.6282 13.341 34.4417 13.341 35.5264V41.8023H9.71494V35.201C9.71494 33.233 8.92464 32.249 7.34405 32.249C6.50726 32.249 5.84093 32.528 5.34505 33.0858C4.84918 33.6282 4.60124 34.4417 4.60124 35.5264V41.8023H0.975163V29.297H4.43853V30.7382C4.90342 30.2113 5.46902 29.8084 6.13535 29.5295C6.81718 29.2505 7.56099 29.1111 8.36679 29.1111C9.25006 29.1111 10.0481 29.2893 10.7609 29.6457C11.4737 29.9866 12.0471 30.4902 12.481 31.1566C12.9924 30.5057 13.6354 30.0021 14.4103 29.6457C15.2006 29.2893 16.0606 29.1111 16.9903 29.1111Z" fill="black"/>
<path d="M37.7401 35.5962C37.7401 35.6427 37.7168 35.9681 37.6703 36.5724H28.21C28.3804 37.3472 28.7833 37.9593 29.4187 38.4087C30.054 38.8581 30.8443 39.0828 31.7896 39.0828C32.4404 39.0828 33.0138 38.9898 33.5096 38.8039C34.021 38.6024 34.4936 38.2925 34.9275 37.8741L36.8568 39.9661C35.6791 41.3142 33.959 41.9883 31.6966 41.9883C30.2865 41.9883 29.039 41.7171 27.9543 41.1748C26.8696 40.6169 26.0328 39.8498 25.4439 38.8736C24.8551 37.8973 24.5607 36.7894 24.5607 35.5497C24.5607 34.3255 24.8473 33.2253 25.4207 32.249C26.0095 31.2573 26.8076 30.4902 27.8148 29.9479C28.8376 29.39 29.9765 29.1111 31.2317 29.1111C32.4559 29.1111 33.5639 29.3745 34.5556 29.9014C35.5474 30.4282 36.3222 31.1875 36.88 32.1793C37.4534 33.1555 37.7401 34.2945 37.7401 35.5962ZM31.255 31.8539C30.4337 31.8539 29.7441 32.0863 29.1862 32.5512C28.6284 33.0161 28.2875 33.6514 28.1635 34.4572H34.3232C34.1992 33.6669 33.8583 33.0393 33.3004 32.5744C32.7426 32.0941 32.0608 31.8539 31.255 31.8539Z" fill="black"/>
<path d="M43.6175 30.9474C44.0514 30.343 44.6325 29.8859 45.3609 29.576C46.1047 29.266 46.9569 29.1111 47.9177 29.1111V32.4582C47.5148 32.4272 47.2436 32.4117 47.1042 32.4117C46.0659 32.4117 45.2524 32.7062 44.6635 33.295C44.0747 33.8684 43.7803 34.7361 43.7803 35.8983V41.8023H40.1542V29.297H43.6175V30.9474Z" fill="black"/>
<path d="M56.0037 41.9883C54.6711 41.9883 53.4701 41.7171 52.4009 41.1748C51.3472 40.6169 50.5181 39.8498 49.9138 38.8736C49.3249 37.8973 49.0305 36.7894 49.0305 35.5497C49.0305 34.31 49.3249 33.202 49.9138 32.2258C50.5181 31.2495 51.3472 30.4902 52.4009 29.9479C53.4701 29.39 54.6711 29.1111 56.0037 29.1111C57.3209 29.1111 58.4676 29.39 59.4439 29.9479C60.4356 30.4902 61.1562 31.2728 61.6056 32.2955L58.793 33.8064C58.1422 32.6597 57.2047 32.0863 55.9805 32.0863C55.0352 32.0863 54.2527 32.3962 53.6328 33.0161C53.013 33.6359 52.7031 34.4805 52.7031 35.5497C52.7031 36.6189 53.013 37.4635 53.6328 38.0833C54.2527 38.7031 55.0352 39.0131 55.9805 39.0131C57.2202 39.0131 58.1577 38.4397 58.793 37.293L61.6056 38.8271C61.1562 39.8189 60.4356 40.5937 59.4439 41.1515C58.4676 41.7094 57.3209 41.9883 56.0037 41.9883Z" fill="black"/>
<path d="M75.7841 35.5962C75.7841 35.6427 75.7609 35.9681 75.7144 36.5724H66.254C66.4245 37.3472 66.8274 37.9593 67.4627 38.4087C68.0981 38.8581 68.8884 39.0828 69.8336 39.0828C70.4845 39.0828 71.0578 38.9898 71.5537 38.8039C72.0651 38.6024 72.5377 38.2925 72.9716 37.8741L74.9008 39.9661C73.7231 41.3142 72.0031 41.9883 69.7406 41.9883C68.3305 41.9883 67.0831 41.7171 65.9983 41.1748C64.9136 40.6169 64.0768 39.8498 63.488 38.8736C62.8991 37.8973 62.6047 36.7894 62.6047 35.5497C62.6047 34.3255 62.8914 33.2253 63.4647 32.249C64.0536 31.2573 64.8516 30.4902 65.8589 29.9479C66.8816 29.39 68.0206 29.1111 69.2758 29.1111C70.4999 29.1111 71.6079 29.3745 72.5997 29.9014C73.5914 30.4282 74.3662 31.1875 74.9241 32.1793C75.4974 33.1555 75.7841 34.2945 75.7841 35.5962ZM69.299 31.8539C68.4777 31.8539 67.7881 32.0863 67.2303 32.5512C66.6724 33.0161 66.3315 33.6514 66.2075 34.4572H72.3672C72.2433 33.6669 71.9023 33.0393 71.3445 32.5744C70.7866 32.0941 70.1048 31.8539 69.299 31.8539Z" fill="black"/>
</svg>
