<svg width="37" height="35" viewBox="0 0 37 35" fill="none" xmlns="http://www.w3.org/2000/svg">
<path d="M26.3571 11.4375V9.75C26.3571 6.02801 23.281 3 19.5 3C15.7189 3 12.6429 6.02801 12.6429 9.75V11.4375H7.5V25.7812C7.5 28.1112 9.41877 30 11.7857 30H27.2143C29.5812 30 31.5 28.1112 31.5 25.7812V11.4375H26.3571ZM16.0714 9.75C16.0714 7.889 17.6095 6.375 19.5 6.375C21.3905 6.375 22.9286 7.889 22.9286 9.75V11.4375H16.0714V9.75ZM24.6429 16.0781C23.9328 16.0781 23.3571 15.5115 23.3571 14.8125C23.3571 14.1135 23.9328 13.5469 24.6429 13.5469C25.3529 13.5469 25.9286 14.1135 25.9286 14.8125C25.9286 15.5115 25.3529 16.0781 24.6429 16.0781ZM14.3571 16.0781C13.6471 16.0781 13.0714 15.5115 13.0714 14.8125C13.0714 14.1135 13.6471 13.5469 14.3571 13.5469C15.0672 13.5469 15.6429 14.1135 15.6429 14.8125C15.6429 15.5115 15.0672 16.0781 14.3571 16.0781Z" fill="url(#paint0_linear)"/>
<defs>
<linearGradient id="paint0_linear" x1="19.5" y1="3" x2="19.5" y2="30" gradientUnits="userSpaceOnUse">
<stop stop-color="#4F5259"/>
<stop offset="1" stop-color="#37393E"/>
</linearGradient>
</defs>
</svg>
