<svg width="36" height="33" viewBox="0 0 36 33" fill="none" xmlns="http://www.w3.org/2000/svg">
<path d="M33.5588 8.90039L23.8251 4C22.8203 5.41172 20.5955 6.39688 18.0009 6.39688C15.4062 6.39688 13.1815 5.41172 12.1767 4L2.44295 8.90039C2.04801 9.10352 1.88803 9.59102 2.083 9.99219L4.94262 15.8066C5.1426 16.2078 5.62253 16.3703 6.01748 16.1723L8.8471 14.7656C9.37703 14.5016 9.99695 14.8926 9.99695 15.4969V28.375C9.99695 29.2738 10.7119 30 11.5967 30H24.395C25.2799 30 25.9948 29.2738 25.9948 28.375V15.4918C25.9948 14.8926 26.6148 14.4965 27.1447 14.7605L29.9743 16.1672C30.3693 16.3703 30.8492 16.2078 31.0492 15.8016L33.9138 9.99219C34.1138 9.59102 33.9538 9.09844 33.5588 8.90039V8.90039Z" fill="url(#paint0_linear)"/>
<defs>
<linearGradient id="paint0_linear" x1="18" y1="4" x2="18" y2="30" gradientUnits="userSpaceOnUse">
<stop stop-color="#E3A951"/>
<stop offset="1" stop-color="#DD9427"/>
</linearGradient>
</defs>
</svg>
