<svg width="37" height="18" viewBox="0 0 37 18" fill="none" xmlns="http://www.w3.org/2000/svg">
<g clip-path="url(#clip0)">
<path fill-rule="evenodd" clip-rule="evenodd" d="M36.4999 11.1203C36.4999 9.2958 35.1312 7.76673 33.3163 7.56351C32.4169 7.46285 31.5267 7.29572 30.6703 7.06684C27.3534 6.18 18.3347 2.18032 15.6495 0.975577C14.7477 0.570965 13.7127 0.763262 13.0124 1.46541L9.87109 4.61463C9.53682 4.94974 9.05054 5.06485 8.60209 4.91499L5.07065 3.73484C4.80929 3.6475 4.63387 3.4034 4.63387 3.12736V2.7907C4.63387 2.1467 4.1113 1.62282 3.46893 1.62282H2.79449C1.8644 1.62282 1.09012 2.35183 1.03176 3.2823L0.503364 11.7074C0.470246 12.3398 0.682519 12.9418 1.10137 13.4116V16.0516C1.10137 16.6956 1.62393 17.2195 2.26631 17.2195H22.1075C27.9945 17.2195 32.6503 16.0488 34.3787 15.5455C34.8519 15.4077 35.2491 15.0763 35.4687 14.6361L36.4404 12.6877C36.4805 12.6076 36.4993 12.5211 36.4993 12.435H36.5L36.4999 11.1203Z" fill="url(#paint0_linear)"/>
</g>
<defs>
<linearGradient id="paint0_linear" x1="18.5" y1="0.766357" x2="18.5" y2="17.2195" gradientUnits="userSpaceOnUse">
<stop stop-color="#C4C4C4"/>
<stop offset="1" stop-color="#ABABAB"/>
</linearGradient>
<clipPath id="clip0">
<rect x="0.5" y="0.766357" width="36" height="16.4531" fill="white"/>
</clipPath>
</defs>
</svg>
